# xmcd
#
# Track frame offsets:
#	150
#	16350
#	40305
#	61808
#	75748
#	86928
#	95888
#	113273
#	132725
#	149045
#	160815
#	169698
#	185473
#	198635
#	218173
#	229370
#
# Disc length: 3211 seconds
#
# Revision: 0
# Processed by: cddbd v1.5.2PL0 Copyright (c) Steve Scherf et al.
# Submitted via: dBpowerAMP V4.0
#
DISCID=ea0c8910
DTITLE=Among Friends - Irish Traditional Music
DYEAR=2006
DGENRE=Celtic
TTITLE0=among friends
TTITLE1=the gold ring
TTITLE2=jolton club
TTITLE3=the falcarragh set
TTITLE4=midnight paddlers and dark horizon
TTITLE5=an mhaighdean mhara
TTITLE6=stack of wheat and trim the velvet
TTITLE7=loftus jones
TTITLE8=home boy atholl and o mahoney frolics
TTITLE9=billy bocker and a stor a stor and the black haired lass
TTITLE10=the maid in the cherry tree and boil the breakfast early
TTITLE11=the acrobat and an phisfliuch
TTITLE12=joe ryans and dinkys
TTITLE13=an clar bog deil and buckleys fancy
TTITLE14=long stone and hewlett and temple bar
TTITLE15=an seisiun
EXTD=
EXTT0=
EXTT1=
EXTT2=
EXTT3=
EXTT4=
EXTT5=
EXTT6=
EXTT7=
EXTT8=
EXTT9=
EXTT10=
EXTT11=
EXTT12=
EXTT13=
EXTT14=
EXTT15=
PLAYORDER=
